HIERARCHY
ROOT Hips
{
	OFFSET 0.00000 0.00000 0.00000
	CHANNELS 6 Xposition Yposition Zposition Zrotation Yrotation Xrotation 
	JOINT LHipJoint
	{
		OFFSET 0 0 0
		CHANNELS 3 Zrotation Yrotation Xrotation
		JOINT LeftUpLeg
		{
			OFFSET 1.62329 -1.80800 0.67318
			CHANNELS 3 Zrotation Yrotation Xrotation
			JOINT LeftLeg
			{
				OFFSET 2.57139 -7.06484 0.00000
				CHANNELS 3 Zrotation Yrotation Xrotation
				JOINT LeftFoot
				{
					OFFSET 2.52017 -6.92413 0.00000
					CHANNELS 3 Zrotation Yrotation Xrotation
					JOINT LeftToeBase
					{
						OFFSET 0.23295 -0.64001 2.10214
						CHANNELS 3 Zrotation Yrotation Xrotation
						End Site
						{
							OFFSET 0.00000 -0.00000 1.10139
						}
					}
				}
			}
		}
	}
	JOINT RHipJoint
	{
		OFFSET 0 0 0
		CHANNELS 3 Zrotation Yrotation Xrotation
		JOINT RightUpLeg
		{
			OFFSET -1.48061 -1.80800 0.67318
			CHANNELS 3 Zrotation Yrotation Xrotation
			JOINT RightLeg
			{
				OFFSET -2.63258 -7.23296 0.00000
				CHANNELS 3 Zrotation Yrotation Xrotation
				JOINT RightFoot
				{
					OFFSET -2.54779 -7.00000 0.00000
					CHANNELS 3 Zrotation Yrotation Xrotation
					JOINT RightToeBase
					{
						OFFSET -0.23067 -0.63376 2.12161
						CHANNELS 3 Zrotation Yrotation Xrotation
						End Site
						{
							OFFSET -0.00000 -0.00000 1.11000
						}
					}
				}
			}
		}
	}
	JOINT LowerBack
	{
		OFFSET 0 0 0
		CHANNELS 3 Zrotation Yrotation Xrotation
		JOINT Spine
		{
			OFFSET -0.02108 2.07573 -0.16981
			CHANNELS 3 Zrotation Yrotation Xrotation
			JOINT Spine1
			{
				OFFSET 0.05070 2.08439 -0.03141
				CHANNELS 3 Zrotation Yrotation Xrotation
				JOINT Neck
				{
					OFFSET 0 0 0
					CHANNELS 3 Zrotation Yrotation Xrotation
					JOINT Neck1
					{
						OFFSET -0.10731 1.60408 0.31370
						CHANNELS 3 Zrotation Yrotation Xrotation
						JOINT Head
						{
							OFFSET 0.08411 1.65679 -0.30822
							CHANNELS 3 Zrotation Yrotation Xrotation
							End Site
							{
								OFFSET 0.03911 1.69149 -0.14146
							}
						}
					}
				}
				JOINT LeftShoulder
				{
					OFFSET 0 0 0
					CHANNELS 3 Zrotation Yrotation Xrotation
					JOINT LeftArm
					{
						OFFSET 3.52315 0.73219 -0.54694
						CHANNELS 3 Zrotation Yrotation Xrotation
						JOINT LeftForeArm
						{
							OFFSET 5.32462 -0.00000 -0.00000
							CHANNELS 3 Zrotation Yrotation Xrotation
							JOINT LeftHand
							{
								OFFSET 3.48402 -0.00000 -0.00000
								CHANNELS 3 Zrotation Yrotation Xrotation
								JOINT LeftFingerBase
								{
									OFFSET 0 0 0
									CHANNELS 3 Zrotation Yrotation Xrotation
									JOINT LeftHandIndex1
									{
										OFFSET 0.57248 -0.00000 -0.00000
										CHANNELS 3 Zrotation Yrotation Xrotation
										End Site
										{
											OFFSET 0.46154 -0.00000 -0.00000
										}
									}
								}
								JOINT LThumb
								{
									OFFSET 0 0 0
									CHANNELS 3 Zrotation Yrotation Xrotation
									End Site
									{
										OFFSET 0.46859 -0.00000 0.46859
									}
								}
							}
						}
					}
				}
				JOINT RightShoulder
				{
					OFFSET 0 0 0
					CHANNELS 3 Zrotation Yrotation Xrotation
					JOINT RightArm
					{
						OFFSET -3.41766 0.93592 -0.10019
						CHANNELS 3 Zrotation Yrotation Xrotation
						JOINT RightForeArm
						{
							OFFSET -5.33589 -0.00000 -0.00000
							CHANNELS 3 Zrotation Yrotation Xrotation
							JOINT RightHand
							{
								OFFSET -3.64134 -0.00000 -0.00000
								CHANNELS 3 Zrotation Yrotation Xrotation
								JOINT RightFingerBase
								{
									OFFSET 0 0 0
									CHANNELS 3 Zrotation Yrotation Xrotation
									JOINT RightHandIndex1
									{
										OFFSET -0.73481 -0.00000 -0.00000
										CHANNELS 3 Zrotation Yrotation Xrotation
										End Site
										{
											OFFSET -0.59242 -0.00000 -0.00000
										}
									}
								}
								JOINT RThumb
								{
									OFFSET 0 0 0
									CHANNELS 3 Zrotation Yrotation Xrotation
									End Site
									{
										OFFSET -0.60147 -0.00000 0.60147
									}
								}
							}
						}
					}
				}
			}
		}
	}
}
MOTION
Frames: 11
Frame Time: .0083333
0.8474 17.7437 -5.2827 0 0 0 0 0 0 -21 0 0 0 0 0 0 0 0 0 0 0 0 0 0 21 0 0 0 0 0 0 0 0 0 0 0 0 0 0 0 0 0 0 0 0 0 0 -16 0 0 21 0 0 11 0 0 0 -8 0 0 0 0 0 0 0 0 0 0 0 0 0 0 0 0 0 0 0 0 8 0 0 0 0 0 0 0 0 0 0 0 0 0 0 0 0 0
0.8474 17.7437 -5.2827 3.3592 -39.2985 2.2154 0.0000 0.0000 0.0000 -19.3344 -6.2498 -16.6563 2.0963 9.0638 25.9951 0.3203 1.5107 -11.3502 0.2630 -3.2993 -9.1133 0.0000 0.0000 0.0000 15.2129 13.3837 -5.6876 -2.7140 -10.2171 29.6825 -1.0204 9.3817 -18.2258 -0.0921 -1.9574 5.3880 -5.7763 -0.3367 3.3411 1.6282 -0.6349 0.5371 4.9594 -0.2926 -1.2396 -12.9636 -5.8578 -23.3668 6.8706 -5.0310 12.4582 3.7123 -2.3312 8.1581 -0.0000 0.0000 0.0000 -89.4710 -0.5255 15.0190 15.1347 -24.3334 -3.2812 -0.0000 -0.0000 12.0214 14.4022 22.8304 5.6901 -7.1250 0.0000 -0.0000 -15.0904 52.8398 -2.9651 -0.0000 0.0000 0.0000 81.7706 -1.8665 24.3380 -19.3119 29.8044 -5.1850 0.0000 0.0000 13.3637 -18.3219 6.4996 -2.1467 7.1250 -0.0000 -0.0000 6.2031 -23.1459 3.2841
0.8625 17.7443 -5.2493 3.2584 -39.6380 2.3531 0.0000 0.0000 0.0000 -19.3544 -6.1735 -16.7477 2.1201 9.1119 26.1460 0.3306 1.5366 -11.5316 0.2907 -3.4673 -9.5827 0.0000 0.0000 0.0000 15.1434 13.5233 -5.7278 -2.7059 -10.2029 29.6365 -1.0056 9.5049 -18.1169 -0.0807 -1.8329 5.0442 -5.8263 -0.2889 3.3275 1.6117 -0.5733 0.4798 4.9684 -0.2580 -1.2988 -13.0418 -5.9467 -23.1403 6.7694 -5.1166 11.6925 3.6740 -2.3776 7.8695 0.0000 -0.0000 0.0000 -89.3414 -0.3926 15.1895 15.2605 -24.5078 -3.3333 -0.0000 -0.0000 11.6622 14.3360 22.9173 5.6833 -7.1250 0.0000 -0.0000 -15.1956 52.9130 -3.0141 0.0000 -0.0000 0.0000 81.5011 -1.7096 24.6442 -19.6244 30.1871 -5.3412 0.0000 0.0000 12.7528 -18.2430 6.2414 -2.0523 7.1250 -0.0000 -0.0000 6.2669 -23.4191 3.2788
0.8799 17.7437 -5.2186 3.1937 -39.8329 2.4057 0.0000 0.0000 0.0000 -19.3994 -6.2421 -16.7192 2.1379 9.1476 26.2581 0.3391 1.6459 -11.7254 0.2702 -3.3439 -9.2378 0.0000 0.0000 0.0000 15.0769 13.5761 -5.7022 -2.7016 -10.1956 29.6124 -0.9982 9.5598 -18.0620 -0.0642 -1.6349 4.4978 -5.8852 -0.2684 3.4256 1.6197 -0.5551 0.4022 5.0111 -0.2420 -1.4358 -13.3998 -6.0874 -22.7878 6.8764 -5.2420 10.9283 3.7485 -2.4368 7.5815 -0.0000 -0.0000 0.0000 -89.3324 -0.2409 15.2402 15.3314 -24.6058 -3.3627 -0.0000 -0.0000 11.5328 14.1752 22.9032 5.6140 -7.1250 0.0000 -0.0000 -15.3471 52.8708 -3.0292 -0.0000 -0.0000 0.0000 81.0847 -1.6806 25.0656 -20.1057 30.7694 -5.5853 0.0000 0.0000 11.9865 -18.0229 5.8780 -1.9084 7.1250 -0.0000 -0.0000 6.4387 -23.8068 3.3120
0.8953 17.7427 -5.1869 3.2086 -40.0779 2.3661 0.0000 0.0000 0.0000 -19.5195 -6.1284 -16.7058 2.1554 9.1826 26.3682 0.3484 1.6938 -11.8985 0.2435 -3.1757 -8.7684 0.0000 0.0000 0.0000 14.9369 13.5379 -5.6855 -2.6983 -10.1899 29.5938 -0.9815 9.6536 -17.9341 -0.0423 -1.3278 3.6514 -6.0054 -0.2513 3.4401 1.6066 -0.5377 0.4117 5.0650 -0.2329 -1.4354 -13.7554 -6.1953 -22.4040 6.9494 -5.3199 9.9165 3.8180 -2.4721 7.2025 -0.0000 0.0000 0.0000 -89.3728 -0.2104 14.9673 15.3989 -24.6989 -3.3909 -0.0000 -0.0000 11.6782 14.0161 22.9108 5.5505 -7.1250 0.0000 -0.0000 -15.5067 52.8501 -3.0540 -0.0000 0.0000 0.0000 80.6096 -1.4962 25.5825 -20.5904 31.3471 -5.8354 0.0000 0.0000 11.2430 -18.1355 5.8688 -1.9182 7.1250 -0.0000 -0.0000 6.3555 -23.8123 3.2679
0.9092 17.7412 -5.1492 3.2542 -40.3064 2.2929 0.0000 0.0000 0.0000 -19.6979 -6.0032 -16.6389 2.1697 9.2109 26.4574 0.3602 1.7019 -12.0863 0.2359 -3.1257 -8.6289 0.0000 0.0000 0.0000 14.7356 13.3438 -5.7068 -2.6983 -10.1899 29.5939 -0.9478 9.9086 -17.6861 -0.0379 -1.2569 3.4558 -6.1040 -0.2618 3.3824 1.5495 -0.5520 0.4415 5.0612 -0.2427 -1.3699 -13.9624 -6.3107 -21.9860 6.9374 -5.4477 8.8595 3.8307 -2.5318 6.8051 0.0000 -0.0000 0.0000 -89.3231 -0.1714 14.7368 15.4679 -24.7939 -3.4198 -0.0000 -0.0000 11.7221 13.9531 22.8745 5.5165 -7.1250 0.0000 -0.0000 -15.5515 52.8036 -3.0452 0.0000 -0.0000 0.0000 80.2762 -1.1902 25.8323 -21.0864 31.9291 -6.0956 0.0000 0.0000 10.8098 -18.4244 5.8013 -1.9286 7.1250 -0.0000 -0.0000 6.1433 -23.8726 3.1489
0.9240 17.7413 -5.1124 3.3310 -40.5930 2.1862 0.0000 0.0000 0.0000 -19.9037 -5.7663 -16.5936 2.1868 9.2447 26.5638 0.3719 1.7306 -12.2812 0.2353 -3.1217 -8.6176 0.0000 0.0000 0.0000 14.5168 13.2049 -5.7065 -2.6999 -10.1926 29.6026 -0.9219 10.0930 -17.4956 -0.0212 -0.9397 2.5829 -6.1794 -0.2411 3.3648 1.4297 -0.5272 0.4767 4.9771 -0.2325 -1.3273 -14.0210 -6.4179 -21.7116 6.8684 -5.5840 7.9114 3.8007 -2.5941 6.4640 0.0000 0.0000 0.0000 -89.0788 -0.1626 14.9496 15.5179 -24.8626 -3.4408 -0.0000 -0.0000 11.3557 14.2210 22.9513 5.6439 -7.1250 0.0000 -0.0000 -15.3245 52.9258 -3.0455 0.0000 0.0000 0.0000 79.9559 -0.8615 25.9341 -21.6683 32.6001 -6.4062 0.0000 0.0000 10.6010 -18.3887 6.0502 -2.0068 7.1250 -0.0000 -0.0000 6.1638 -23.6133 3.1965
0.9392 17.7414 -5.0803 3.3684 -40.8872 2.1585 0.0000 0.0000 0.0000 -20.0563 -5.5718 -16.6217 2.2050 9.2806 26.6771 0.3794 1.8313 -12.4481 0.2368 -3.1317 -8.6456 0.0000 0.0000 0.0000 14.3450 13.1973 -5.7542 -2.7044 -10.2004 29.6282 -0.8967 10.2680 -17.3103 -0.0174 -0.8510 2.3388 -6.3271 -0.2778 3.3547 1.3961 -0.5812 0.4809 5.0280 -0.2596 -1.3091 -14.2065 -6.4837 -21.4242 6.8475 -5.6390 6.8579 3.8196 -2.6154 6.0855 -0.0000 0.0000 0.0000 -88.9531 -0.1498 14.9805 15.6027 -24.9790 -3.4765 -0.0000 -0.0000 10.8955 14.2738 23.3475 5.7574 -7.1250 0.0000 -0.0000 -15.4594 53.3218 -3.2249 -0.0000 0.0000 0.0000 79.3734 -0.4515 26.3612 -22.2825 33.2948 -6.7403 0.0000 0.0000 10.2331 -18.5067 6.2418 -2.0842 7.1250 -0.0000 -0.0000 6.0724 -23.4083 3.1774
0.9506 17.7439 -5.0573 3.1705 -41.9450 2.6166 0.0000 0.0000 0.0000 -19.9548 -5.0802 -17.0685 2.2221 9.3141 26.7829 0.3810 2.2374 -12.6952 0.2198 -3.0181 -8.3290 0.0000 0.0000 0.0000 14.2580 13.8731 -6.1850 -2.7145 -10.2178 29.6850 -0.8441 10.6023 -16.9199 -0.0211 -0.9384 2.5794 -6.5828 -0.1187 3.0624 1.5276 -0.3594 0.3444 5.2999 -0.1430 -1.3136 -14.5116 -6.5560 -21.0987 6.7871 -5.6760 5.7726 3.8486 -2.6331 5.6933 -0.0000 -0.0000 0.0000 -89.0891 0.0259 14.5601 15.7758 -25.2157 -3.5499 -0.0000 -0.0000 10.7657 14.0592 23.5827 5.7213 -7.1250 0.0000 -0.0000 -15.7848 53.5117 -3.3697 -0.0000 -0.0000 0.0000 78.5846 0.0520 26.8992 -22.9155 33.9962 -7.0910 0.0000 0.0000 9.8154 -18.6331 6.1004 -2.0522 7.1250 -0.0000 -0.0000 5.9820 -23.5514 3.1099
0.9640 17.7407 -5.0227 3.1856 -42.3455 2.6533 0.0000 0.0000 0.0000 -20.0869 -4.9617 -17.1013 2.2380 9.3451 26.8809 0.3856 2.4458 -12.8829 0.1929 -2.8287 -7.8021 0.0000 0.0000 0.0000 14.0950 14.0287 -6.2694 -2.7253 -10.2365 29.7460 -0.8335 10.7523 -16.8605 -0.0134 -0.7477 2.0547 -6.7289 -0.1291 2.9565 1.4895 -0.3716 0.3334 5.3427 -0.1499 -1.2632 -14.6217 -6.6489 -20.8286 6.7064 -5.7889 4.7531 3.8326 -2.6829 5.3352 0.0000 0.0000 0.0000 -88.9846 0.1729 14.5240 15.9257 -25.4198 -3.6140 -0.0000 -0.0000 10.5798 14.1017 23.4080 5.6993 -7.1250 0.0000 -0.0000 -15.6582 53.3496 -3.2788 0.0000 0.0000 0.0000 77.9072 0.5795 27.4336 -23.6557 34.7981 -7.5092 0.0000 0.0000 9.4342 -18.9825 5.8297 -2.0011 7.1250 -0.0000 -0.0000 5.7292 -23.8221 2.9412
0.9798 17.7363 -4.9866 3.2979 -42.4675 2.4608 0.0000 0.0000 0.0000 -20.3114 -4.9823 -16.9334 2.2544 9.3771 26.9821 0.3923 2.5510 -13.0437 0.2021 -2.8950 -7.9865 0.0000 0.0000 0.0000 13.9003 13.8373 -6.2382 -2.7385 -10.2592 29.8203 -0.8286 10.8032 -16.8293 -0.0027 -0.3338 0.9171 -6.8643 -0.2227 3.0090 1.3965 -0.5046 0.3861 5.3274 -0.2192 -1.2188 -14.7405 -6.7342 -20.6777 6.7617 -5.8899 3.8154 3.8639 -2.7164 5.0272 0.0000 -0.0000 0.0000 -88.7551 0.2240 14.5388 16.0109 -25.5354 -3.6507 -0.0000 -0.0000 10.3298 14.0217 23.1732 5.6125 -7.1250 0.0000 -0.0000 -15.6247 53.1066 -3.1775 0.0000 -0.0000 0.0000 77.2484 1.1173 27.7694 -24.5218 35.7112 -8.0091 0.0000 0.0000 9.0894 -18.9576 5.9485 -2.0388 7.1250 -0.0000 -0.0000 5.7452 -23.6983 2.9660
